<svg width="20" height="20" viewBox="0 0 20 20" fill="none" xmlns="http://www.w3.org/2000/svg">
<path d="M17.7141 9.13508C18.1091 9.65175 18.1091 10.3492 17.7141 10.8651C16.4699 12.4892 13.4849 15.8334 9.99993 15.8334C6.51493 15.8334 3.52993 12.4892 2.28576 10.8651C2.09358 10.6177 1.98926 10.3133 1.98926 10.0001C1.98926 9.68682 2.09358 9.38247 2.28576 9.13508C3.52993 7.51092 6.51493 4.16675 9.99993 4.16675C13.4849 4.16675 16.4699 7.51092 17.7141 9.13508V9.13508Z" stroke="#949494" stroke-linecap="round" stroke-linejoin="round"/>
<path d="M10 12.5C11.3807 12.5 12.5 11.3807 12.5 10C12.5 8.61929 11.3807 7.5 10 7.5C8.61929 7.5 7.5 8.61929 7.5 10C7.5 11.3807 8.61929 12.5 10 12.5Z" stroke="#949494" stroke-linecap="round" stroke-linejoin="round"/>
</svg>
