<svg width="556" height="409" viewBox="0 0 556 409" fill="none" xmlns="http://www.w3.org/2000/svg">
<rect opacity="0.5" x="21" width="513" height="359" rx="22" fill="white"/>
<g filter="url(#filter0_dd_346_19286)">
<path d="M40 43C40 30.8497 49.8497 21 62 21H494C506.15 21 516 30.8497 516 43V317C516 329.15 506.15 339 494 339H62C49.8497 339 40 329.15 40 317V43Z" fill="white"/>
<g filter="url(#filter1_dd_346_19286)">
<path d="M491 87H302C293.163 87 286 94.1634 286 103V187C286 195.837 293.163 203 302 203H491C499.837 203 507 195.837 507 187V103C507 94.1634 499.837 87 491 87Z" fill="white"/>
<path d="M317.209 129.455H314.702L311.087 131.777V134.192L314.489 132.018H314.574V144H317.209V129.455ZM323.148 142.011H320.875L320.826 142.807C320.705 144.732 320.201 146.692 319.995 147.551H321.728C322.069 146.656 322.857 144.582 323.056 142.793L323.148 142.011ZM326 144H335.971V141.798H329.636V141.699L332.143 139.149C334.97 136.436 335.751 135.115 335.751 133.474C335.751 131.038 333.77 129.256 330.843 129.256C327.96 129.256 325.914 131.045 325.914 133.808H328.422C328.422 132.324 329.359 131.393 330.808 131.393C332.193 131.393 333.223 132.239 333.223 133.609C333.223 134.824 332.484 135.69 331.049 137.146L326 142.097V144ZM337.846 141.301H344.785V144H347.299V141.301H349.16V139.135H347.299V129.455H344.018L337.846 139.206V141.301ZM344.814 139.135H340.545V139.021L344.7 132.438H344.814V139.135ZM356.806 144.277C360.314 144.284 362.409 141.514 362.409 136.741C362.409 131.997 360.3 129.256 356.806 129.256C353.311 129.256 351.209 131.99 351.202 136.741C351.202 141.507 353.297 144.277 356.806 144.277ZM356.806 142.054C354.995 142.054 353.858 140.236 353.865 136.741C353.873 133.276 355.002 131.45 356.806 131.45C358.617 131.45 359.746 133.276 359.753 136.741C359.753 140.236 358.624 142.054 356.806 142.054Z" fill="#16192C"/>
<path d="M310.426 107.794H313.098V115H314.922V107.794H317.594V106.273H310.426V107.794ZM320.748 115.128C322.734 115.128 323.97 113.769 323.97 111.753C323.97 109.724 322.734 108.369 320.748 108.369C318.762 108.369 317.527 109.724 317.527 111.753C317.527 113.769 318.762 115.128 320.748 115.128ZM320.757 113.722C319.841 113.722 319.372 112.882 319.372 111.74C319.372 110.598 319.841 109.754 320.757 109.754C321.656 109.754 322.125 110.598 322.125 111.74C322.125 112.882 321.656 113.722 320.757 113.722ZM328.632 108.455H327.4V106.886H325.585V108.455H324.69V109.818H325.585V113.227C325.576 114.51 326.45 115.145 327.767 115.09C328.235 115.072 328.568 114.979 328.751 114.919L328.466 113.568C328.376 113.585 328.184 113.628 328.014 113.628C327.652 113.628 327.4 113.492 327.4 112.989V109.818H328.632V108.455ZM331.681 115.124C332.648 115.124 333.275 114.702 333.594 114.092H333.645V115H335.367V110.585C335.367 109.026 334.046 108.369 332.588 108.369C331.02 108.369 329.989 109.119 329.738 110.313L331.417 110.449C331.54 110.014 331.928 109.695 332.58 109.695C333.198 109.695 333.551 110.006 333.551 110.543V110.568C333.551 110.99 333.104 111.046 331.966 111.156C330.671 111.276 329.507 111.71 329.507 113.172C329.507 114.467 330.432 115.124 331.681 115.124ZM332.201 113.871C331.642 113.871 331.242 113.611 331.242 113.112C331.242 112.601 331.664 112.349 332.303 112.26C332.699 112.205 333.347 112.111 333.564 111.966V112.661C333.564 113.347 332.998 113.871 332.201 113.871ZM338.591 106.273H336.775V115H338.591V106.273ZM342.856 115H344.701V111.395H348.447V115H350.288V106.273H348.447V109.874H344.701V106.273H342.856V115ZM354.733 115.128C356.718 115.128 357.954 113.769 357.954 111.753C357.954 109.724 356.718 108.369 354.733 108.369C352.747 108.369 351.511 109.724 351.511 111.753C351.511 113.769 352.747 115.128 354.733 115.128ZM354.741 113.722C353.825 113.722 353.356 112.882 353.356 111.74C353.356 110.598 353.825 109.754 354.741 109.754C355.64 109.754 356.109 110.598 356.109 111.74C356.109 112.882 355.64 113.722 354.741 113.722ZM363.332 112.213C363.336 113.091 362.735 113.551 362.083 113.551C361.397 113.551 360.954 113.07 360.95 112.298V108.455H359.135V112.622C359.139 114.152 360.034 115.085 361.35 115.085C362.335 115.085 363.042 114.578 363.336 113.811H363.404V115H365.147V108.455H363.332V112.213ZM366.599 115H368.415V111.297C368.415 110.492 369.003 109.938 369.804 109.938C370.055 109.938 370.401 109.98 370.571 110.036V108.425C370.409 108.386 370.183 108.361 370 108.361C369.267 108.361 368.666 108.787 368.428 109.597H368.359V108.455H366.599V115ZM376.956 110.321C376.794 109.115 375.822 108.369 374.169 108.369C372.494 108.369 371.39 109.145 371.395 110.406C371.39 111.386 372.008 112.021 373.287 112.277L374.42 112.503C374.991 112.618 375.251 112.827 375.26 113.155C375.251 113.543 374.829 113.82 374.194 113.82C373.547 113.82 373.116 113.543 373.005 113.01L371.22 113.104C371.39 114.357 372.456 115.128 374.19 115.128C375.886 115.128 377.1 114.263 377.105 112.972C377.1 112.026 376.483 111.459 375.213 111.199L374.028 110.96C373.419 110.828 373.193 110.619 373.197 110.304C373.193 109.912 373.636 109.656 374.199 109.656C374.829 109.656 375.204 110.001 375.294 110.423L376.956 110.321Z" fill="#7A7A9D"/>
<path d="M445 126C445 113.297 455.297 103 468 103C480.703 103 491 113.297 491 126C491 138.703 480.703 149 468 149C455.297 149 445 138.703 445 126Z" fill="url(#paint0_linear_346_19286)"/>
<mask id="mask0_346_19286" style="mask-type:alpha" maskUnits="userSpaceOnUse" x="459" y="117" width="18" height="18">
<path fill-rule="evenodd" clip-rule="evenodd" d="M468.579 118.146C468.387 118.132 468.194 118.125 468 118.125V117C468.221 117 468.442 117.008 468.662 117.024L468.579 118.146ZM470.834 118.653C470.473 118.514 470.103 118.401 469.725 118.316L469.972 117.219C470.403 117.315 470.827 117.444 471.239 117.603L470.834 118.653ZM472.375 119.452C472.214 119.345 472.049 119.243 471.882 119.148L472.436 118.169C472.628 118.278 472.816 118.394 473 118.517C473.184 118.64 473.363 118.769 473.537 118.905L472.845 119.792C472.693 119.673 472.536 119.56 472.375 119.452ZM474.438 121.466C474.216 121.149 473.97 120.85 473.703 120.57L474.518 119.794C474.823 120.114 475.104 120.456 475.358 120.818L474.438 121.466ZM475.276 122.986C475.201 122.807 475.121 122.632 475.034 122.459L476.039 121.953C476.138 122.15 476.23 122.351 476.315 122.556C476.4 122.76 476.477 122.968 476.546 123.177L475.478 123.53C475.417 123.347 475.35 123.165 475.276 122.986ZM475.873 125.807C475.863 125.42 475.825 125.035 475.759 124.654L476.868 124.461C476.943 124.897 476.986 125.337 476.997 125.779L475.873 125.807ZM475.724 127.536C475.761 127.346 475.792 127.155 475.816 126.964L476.932 127.102C476.905 127.32 476.87 127.539 476.827 127.756C476.784 127.973 476.733 128.188 476.674 128.4L475.59 128.1C475.641 127.915 475.686 127.726 475.724 127.536ZM474.653 130.213C474.86 129.886 475.043 129.545 475.199 129.191L476.228 129.647C476.049 130.051 475.84 130.442 475.604 130.815L474.653 130.213ZM473.568 131.568C473.705 131.431 473.837 131.29 473.963 131.144L474.815 131.879C474.671 132.045 474.521 132.207 474.364 132.364L473.568 131.568Z" fill="black"/>
<path fill-rule="evenodd" clip-rule="evenodd" d="M468 118.125C466.705 118.125 465.43 118.444 464.288 119.055C463.146 119.665 462.172 120.548 461.452 121.625C460.733 122.702 460.29 123.939 460.163 125.228C460.036 126.517 460.229 127.817 460.724 129.014C461.22 130.21 462.003 131.266 463.004 132.087C464.005 132.909 465.193 133.471 466.464 133.724C467.734 133.976 469.047 133.912 470.286 133.536C471.525 133.16 472.653 132.484 473.568 131.568L474.364 132.364C473.317 133.411 472.029 134.183 470.613 134.612C469.196 135.042 467.696 135.116 466.244 134.827C464.793 134.538 463.435 133.896 462.29 132.957C461.146 132.018 460.251 130.812 459.685 129.444C459.119 128.077 458.898 126.591 459.043 125.118C459.188 123.645 459.694 122.23 460.517 121C461.339 119.769 462.452 118.76 463.757 118.063C465.063 117.365 466.52 117 468 117V118.125Z" fill="black"/>
<path fill-rule="evenodd" clip-rule="evenodd" d="M467.438 120.375C467.748 120.375 468 120.627 468 120.938V126.799L471.654 128.887C471.924 129.041 472.018 129.384 471.863 129.654C471.709 129.924 471.366 130.018 471.096 129.863L467.158 127.613C466.983 127.513 466.875 127.327 466.875 127.125V120.938C466.875 120.627 467.127 120.375 467.438 120.375Z" fill="black"/>
</mask>
<g mask="url(#mask0_346_19286)">
<path d="M477 117H459V135H477V117Z" fill="white"/>
</g>
</g>
<g filter="url(#filter2_dd_346_19286)">
<path d="M491 210H302C293.163 210 286 217.163 286 226V310C286 318.837 293.163 326 302 326H491C499.837 326 507 318.837 507 310V226C507 217.163 499.837 210 491 210Z" fill="white"/>
<path d="M315.76 268.818H317.266L317.273 267.192C320.32 266.972 322.067 265.295 322.074 262.916C322.067 260.395 319.986 259.244 317.798 258.726L317.33 258.605L317.358 254.55C318.494 254.749 319.226 255.43 319.339 256.453H321.875C321.832 254.195 320.057 252.547 317.372 252.291L317.379 250.636H315.874L315.866 252.291C313.203 252.561 311.286 254.195 311.293 256.545C311.293 258.634 312.777 259.834 315.17 260.452L315.81 260.615L315.781 264.912C314.51 264.713 313.594 263.989 313.501 262.703H310.909C311.009 265.366 312.841 266.95 315.767 267.192L315.76 268.818ZM317.287 264.912L317.315 261.013C318.608 261.389 319.432 261.886 319.439 262.895C319.432 263.946 318.587 264.699 317.287 264.912ZM315.824 258.222C314.844 257.909 313.949 257.391 313.963 256.382C313.97 255.466 314.659 254.756 315.852 254.55L315.824 258.222ZM324.281 267H334.252V264.798H327.917V264.699L330.424 262.149C333.251 259.436 334.032 258.115 334.032 256.474C334.032 254.038 332.051 252.256 329.125 252.256C326.241 252.256 324.196 254.045 324.196 256.808H326.703C326.703 255.324 327.64 254.393 329.089 254.393C330.474 254.393 331.504 255.239 331.504 256.609C331.504 257.824 330.765 258.69 329.331 260.146L324.281 265.097V267ZM339.75 265.011H337.477L337.427 265.807C337.306 267.732 336.802 269.692 336.596 270.551H338.329C338.67 269.656 339.458 267.582 339.657 265.793L339.75 265.011ZM347.482 267.199C350.558 267.199 352.702 265.111 352.702 262.22C352.702 259.422 350.756 257.405 348.114 257.405C346.935 257.405 345.891 257.874 345.352 258.513H345.266L345.685 254.656H351.942V252.455H343.505L342.745 259.955L345.124 260.345C345.614 259.805 346.538 259.443 347.411 259.45C349.009 259.457 350.16 260.636 350.153 262.284C350.16 263.911 349.038 265.068 347.482 265.068C346.168 265.068 345.11 264.237 345.018 263.044H342.461C342.532 265.459 344.641 267.199 347.482 267.199ZM360.458 267.277C363.967 267.284 366.062 264.514 366.062 259.741C366.062 254.997 363.952 252.256 360.458 252.256C356.964 252.256 354.862 254.99 354.854 259.741C354.854 264.507 356.95 267.277 360.458 267.277ZM360.458 265.054C358.647 265.054 357.511 263.236 357.518 259.741C357.525 256.276 358.654 254.45 360.458 254.45C362.269 254.45 363.398 256.276 363.406 259.741C363.406 263.236 362.276 265.054 360.458 265.054ZM373.798 267.277C377.306 267.284 379.402 264.514 379.402 259.741C379.402 254.997 377.292 252.256 373.798 252.256C370.304 252.256 368.201 254.99 368.194 259.741C368.194 264.507 370.289 267.277 373.798 267.277ZM373.798 265.054C371.987 265.054 370.85 263.236 370.858 259.741C370.865 256.276 371.994 254.45 373.798 254.45C375.609 254.45 376.738 256.276 376.745 259.741C376.745 263.236 375.616 265.054 373.798 265.054Z" fill="#16192C"/>
<path d="M310.759 238H314.487C316.447 238 317.491 236.977 317.491 235.588C317.491 234.297 316.567 233.517 315.574 233.47V233.385C316.482 233.18 317.151 232.537 317.151 231.51C317.151 230.202 316.179 229.273 314.253 229.273H310.759V238ZM312.604 236.491V234.173H314.151C315.037 234.173 315.587 234.685 315.587 235.405C315.587 236.061 315.139 236.491 314.108 236.491H312.604ZM312.604 232.925V230.764H314.006C314.824 230.764 315.288 231.186 315.288 231.817C315.288 232.507 314.726 232.925 313.972 232.925H312.604ZM322.855 235.213C322.86 236.091 322.259 236.551 321.607 236.551C320.921 236.551 320.478 236.07 320.473 235.298V231.455H318.658V235.622C318.662 237.152 319.557 238.085 320.874 238.085C321.858 238.085 322.566 237.578 322.86 236.811H322.928V238H324.671V231.455H322.855V235.213ZM328.535 238.107C329.592 238.107 330.141 237.497 330.393 236.952H330.469V238H332.259V229.273H330.448V232.554H330.393C330.15 232.021 329.626 231.369 328.531 231.369C327.094 231.369 325.88 232.486 325.88 234.736C325.88 236.926 327.043 238.107 328.535 238.107ZM329.11 236.662C328.219 236.662 327.734 235.869 327.734 234.727C327.734 233.594 328.211 232.814 329.11 232.814C329.992 232.814 330.487 233.56 330.487 234.727C330.487 235.895 329.984 236.662 329.11 236.662ZM336.701 240.548C338.571 240.548 339.901 239.696 339.901 238.064V231.455H338.098V232.554H338.03C337.787 232.021 337.255 231.369 336.159 231.369C334.723 231.369 333.509 232.486 333.509 234.714C333.509 236.892 334.689 237.906 336.164 237.906C337.208 237.906 337.792 237.382 338.03 236.841H338.107V238.038C338.107 238.895 337.532 239.244 336.743 239.244C335.942 239.244 335.537 238.895 335.388 238.541L333.709 238.767C333.926 239.756 334.936 240.548 336.701 240.548ZM336.739 236.543C335.848 236.543 335.363 235.835 335.363 234.706C335.363 233.594 335.84 232.814 336.739 232.814C337.621 232.814 338.115 233.56 338.115 234.706C338.115 235.861 337.613 236.543 336.739 236.543ZM344.328 238.128C345.948 238.128 347.039 237.339 347.294 236.125L345.615 236.014C345.432 236.513 344.963 236.773 344.358 236.773C343.451 236.773 342.875 236.172 342.875 235.196V235.192H347.333V234.693C347.333 232.469 345.986 231.369 344.256 231.369C342.33 231.369 341.081 232.737 341.081 234.757C341.081 236.832 342.313 238.128 344.328 238.128ZM342.875 234.067C342.914 233.321 343.48 232.724 344.286 232.724C345.074 232.724 345.62 233.287 345.624 234.067H342.875ZM351.999 231.455H350.767V229.886H348.952V231.455H348.057V232.818H348.952V236.227C348.944 237.51 349.817 238.145 351.134 238.089C351.603 238.072 351.935 237.979 352.118 237.919L351.833 236.568C351.743 236.585 351.551 236.628 351.381 236.628C351.019 236.628 350.767 236.491 350.767 235.989V232.818H351.999V231.455Z" fill="#7A7A9D"/>
<path d="M445 249C445 236.297 455.297 226 468 226C480.703 226 491 236.297 491 249C491 261.703 480.703 272 468 272C455.297 272 445 261.703 445 249Z" fill="#FF92AE"/>
<path fill-rule="evenodd" clip-rule="evenodd" d="M464.062 250.125C461.888 250.125 460.125 251.888 460.125 254.062C460.125 256.237 461.888 258 464.062 258H471.938C474.112 258 475.875 256.237 475.875 254.062C475.875 251.888 474.112 250.125 471.938 250.125H464.062ZM471.938 256.875C473.491 256.875 474.75 255.616 474.75 254.062C474.75 252.509 473.491 251.25 471.938 251.25C470.384 251.25 469.125 252.509 469.125 254.062C469.125 255.616 470.384 256.875 471.938 256.875Z" fill="white"/>
<path fill-rule="evenodd" clip-rule="evenodd" d="M464.062 241.125C462.509 241.125 461.25 242.384 461.25 243.938C461.25 245.491 462.509 246.75 464.062 246.75C465.616 246.75 466.875 245.491 466.875 243.938C466.875 242.384 465.616 241.125 464.062 241.125ZM466.818 241.125C467.547 241.84 468 242.836 468 243.938C468 245.039 467.547 246.035 466.818 246.75H471.938C473.491 246.75 474.75 245.491 474.75 243.938C474.75 242.384 473.491 241.125 471.938 241.125H466.818ZM464.062 240H471.938C474.112 240 475.875 241.763 475.875 243.938C475.875 246.112 474.112 247.875 471.938 247.875H464.062C461.888 247.875 460.125 246.112 460.125 243.938C460.125 241.763 461.888 240 464.062 240Z" fill="white"/>
<path d="M310 289C310 285.686 312.686 283 316 283H352C355.314 283 358 285.686 358 289V301C358 304.314 355.314 307 352 307H316C312.686 307 310 304.314 310 301V289Z" fill="#DEFFEE"/>
<path d="M322.763 297.892H324.034V296.013H325.913V294.742H324.034V292.864H322.763V294.742H320.884V296.013H322.763V297.892ZM330.55 291.727H329.105L327.305 292.867V294.231L328.97 293.187H329.013V299H330.55V291.727ZM335.131 299.16C336.959 299.16 338.064 297.768 338.067 295.371C338.071 292.991 336.952 291.628 335.131 291.628C333.305 291.628 332.197 292.988 332.194 295.371C332.187 297.761 333.298 299.156 335.131 299.16ZM335.131 297.885C334.296 297.885 333.756 297.047 333.76 295.371C333.763 293.719 334.3 292.888 335.131 292.888C335.958 292.888 336.498 293.719 336.498 295.371C336.501 297.047 335.961 297.885 335.131 297.885ZM343.145 297.636C343.148 298.51 343.706 299.252 344.746 299.252C345.776 299.252 346.351 298.51 346.348 297.636V297.253C346.351 296.372 345.79 295.637 344.746 295.637C343.72 295.637 343.148 296.379 343.145 297.253V297.636ZM339.412 293.474C339.416 294.348 339.973 295.083 341.01 295.083C342.044 295.083 342.619 294.355 342.615 293.474V293.091C342.619 292.21 342.058 291.475 341.01 291.475C339.995 291.475 339.416 292.21 339.412 293.091V293.474ZM339.76 299H340.687L345.687 291.727H344.76L339.76 299ZM344.178 297.253C344.181 296.905 344.32 296.546 344.746 296.546C345.194 296.546 345.311 296.905 345.307 297.253V297.636C345.311 297.984 345.179 298.336 344.746 298.336C344.313 298.336 344.181 297.974 344.178 297.636V297.253ZM340.453 293.091C340.456 292.754 340.588 292.384 341.01 292.384C341.458 292.384 341.578 292.743 341.575 293.091V293.474C341.578 293.822 341.444 294.174 341.01 294.174C340.591 294.174 340.456 293.822 340.453 293.474V293.091Z" fill="#66CB9F"/>
<path d="M372.801 294.877C372.581 294.028 371.917 293.474 370.738 293.474C369.506 293.474 368.632 294.124 368.632 295.09C368.632 295.864 369.101 296.379 370.124 296.607L371.047 296.809C371.572 296.926 371.817 297.161 371.817 297.501C371.817 297.924 371.366 298.254 370.67 298.254C370.035 298.254 369.626 297.981 369.499 297.445L368.472 297.601C368.65 298.567 369.452 299.11 370.678 299.11C371.995 299.11 372.908 298.411 372.908 297.423C372.908 296.653 372.418 296.177 371.416 295.946L370.55 295.747C369.95 295.605 369.69 295.403 369.694 295.033C369.69 294.614 370.145 294.316 370.749 294.316C371.409 294.316 371.714 294.682 371.839 295.048L372.801 294.877ZM374.075 299H375.137V293.545H374.075V299ZM374.611 292.704C374.977 292.704 375.282 292.42 375.282 292.072C375.282 291.724 374.977 291.436 374.611 291.436C374.242 291.436 373.94 291.724 373.94 292.072C373.94 292.42 374.242 292.704 374.611 292.704ZM377.627 295.761C377.627 294.891 378.16 294.394 378.898 294.394C379.619 294.394 380.056 294.866 380.056 295.658V299H381.118V295.531C381.118 294.181 380.376 293.474 379.261 293.474C378.44 293.474 377.904 293.854 377.652 294.433H377.585V293.545H376.565V299H377.627V295.761ZM384.839 299.11C386.129 299.11 386.963 298.336 387.08 297.274H386.047C385.912 297.864 385.454 298.212 384.847 298.212C383.948 298.212 383.369 297.462 383.369 296.273C383.369 295.104 383.959 294.369 384.847 294.369C385.521 294.369 385.933 294.795 386.047 295.307H387.08C386.967 294.206 386.068 293.474 384.829 293.474C383.291 293.474 382.297 294.632 382.297 296.298C382.297 297.942 383.256 299.11 384.839 299.11ZM390.567 299.11C391.756 299.11 392.598 298.524 392.839 297.636L391.834 297.455C391.643 297.97 391.181 298.233 390.577 298.233C389.668 298.233 389.057 297.643 389.029 296.592H392.907V296.216C392.907 294.245 391.728 293.474 390.492 293.474C388.972 293.474 387.971 294.632 387.971 296.308C387.971 298.002 388.958 299.11 390.567 299.11ZM389.032 295.797C389.075 295.023 389.636 294.352 390.499 294.352C391.323 294.352 391.863 294.962 391.866 295.797H389.032ZM397.793 291.727H396.731V299H397.793V291.727ZM400.809 299.121C401.711 299.121 402.219 298.663 402.421 298.254H402.464V299H403.501V295.378C403.501 293.79 402.251 293.474 401.384 293.474C400.397 293.474 399.488 293.872 399.133 294.866L400.131 295.094C400.287 294.707 400.685 294.334 401.398 294.334C402.084 294.334 402.435 294.692 402.435 295.31V295.335C402.435 295.722 402.038 295.715 401.058 295.829C400.024 295.95 398.966 296.219 398.966 297.459C398.966 298.531 399.772 299.121 400.809 299.121ZM401.04 298.268C400.44 298.268 400.006 297.999 400.006 297.473C400.006 296.905 400.511 296.702 401.125 296.621C401.469 296.575 402.286 296.482 402.439 296.33V297.033C402.439 297.679 401.924 298.268 401.04 298.268ZM409.002 294.877C408.782 294.028 408.118 293.474 406.939 293.474C405.707 293.474 404.833 294.124 404.833 295.09C404.833 295.864 405.302 296.379 406.325 296.607L407.248 296.809C407.774 296.926 408.019 297.161 408.019 297.501C408.019 297.924 407.568 298.254 406.872 298.254C406.236 298.254 405.828 297.981 405.7 297.445L404.673 297.601C404.851 298.567 405.654 299.11 406.879 299.11C408.196 299.11 409.109 298.411 409.109 297.423C409.109 296.653 408.619 296.177 407.617 295.946L406.751 295.747C406.151 295.605 405.892 295.403 405.895 295.033C405.892 294.614 406.346 294.316 406.95 294.316C407.61 294.316 407.916 294.682 408.04 295.048L409.002 294.877ZM412.822 293.545H411.704V292.239H410.642V293.545H409.843V294.398H410.642V297.619C410.638 298.609 411.395 299.089 412.233 299.071C412.57 299.067 412.798 299.004 412.922 298.957L412.73 298.08C412.659 298.094 412.528 298.126 412.357 298.126C412.013 298.126 411.704 298.013 411.704 297.398V294.398H412.822V293.545ZM416.643 299H417.705V295.637C417.705 294.902 418.22 294.391 418.824 294.391C419.413 294.391 419.822 294.781 419.822 295.374V299H420.88V295.523C420.88 294.866 421.281 294.391 421.974 294.391C422.535 294.391 422.996 294.703 422.996 295.442V299H424.058V295.342C424.058 294.096 423.362 293.474 422.375 293.474C421.59 293.474 421.001 293.851 420.738 294.433H420.681C420.443 293.837 419.942 293.474 419.214 293.474C418.494 293.474 417.957 293.833 417.73 294.433H417.663V293.545H416.643V299ZM427.779 299.11C429.317 299.11 430.322 297.984 430.322 296.298C430.322 294.6 429.317 293.474 427.779 293.474C426.241 293.474 425.236 294.6 425.236 296.298C425.236 297.984 426.241 299.11 427.779 299.11ZM427.782 298.219C426.778 298.219 426.309 297.342 426.309 296.294C426.309 295.25 426.778 294.362 427.782 294.362C428.78 294.362 429.249 295.25 429.249 296.294C429.249 297.342 428.78 298.219 427.782 298.219ZM432.569 295.761C432.569 294.891 433.101 294.394 433.84 294.394C434.561 294.394 434.998 294.866 434.998 295.658V299H436.059V295.531C436.059 294.181 435.317 293.474 434.202 293.474C433.382 293.474 432.846 293.854 432.593 294.433H432.526V293.545H431.507V299H432.569V295.761ZM440.029 293.545H438.911V292.239H437.849V293.545H437.05V294.398H437.849V297.619C437.846 298.609 438.602 299.089 439.44 299.071C439.777 299.067 440.005 299.004 440.129 298.957L439.937 298.08C439.866 298.094 439.735 298.126 439.564 298.126C439.22 298.126 438.911 298.013 438.911 297.398V294.398H440.029V293.545ZM442.383 295.761C442.383 294.891 442.933 294.394 443.69 294.394C444.421 294.394 444.858 294.859 444.858 295.658V299H445.92V295.531C445.92 294.17 445.174 293.474 444.052 293.474C443.203 293.474 442.692 293.844 442.436 294.433H442.369V291.727H441.321V299H442.383V295.761Z" fill="#7A7A9D"/>
</g>
<g filter="url(#filter3_d_346_19286)">
<path d="M230 183.5C230 197.979 224.342 211.884 214.233 222.249C204.125 232.615 190.366 238.62 175.892 238.983C161.418 239.346 147.375 234.038 136.759 224.193C126.144 214.347 119.796 200.743 119.07 186.282C118.344 171.822 123.298 157.651 132.874 146.791C142.45 135.932 155.891 129.245 170.329 128.157C184.766 127.069 199.057 131.666 210.153 140.967C221.249 150.268 228.271 163.536 229.721 177.942L213.155 179.61C212.14 169.526 207.224 160.237 199.457 153.727C191.69 147.216 181.686 143.998 171.58 144.76C161.474 145.522 152.065 150.203 145.362 157.804C138.658 165.405 135.191 175.325 135.699 185.448C136.207 195.57 140.65 205.093 148.081 211.985C155.512 218.877 165.342 222.592 175.474 222.338C185.606 222.084 195.237 217.88 202.313 210.624C209.389 203.369 213.35 193.635 213.35 183.5H230Z" fill="#A6B7D4"/>
</g>
<path d="M230 183.5C230 198.22 224.153 212.336 213.744 222.744C203.336 233.153 189.22 239 174.5 239C159.78 239 145.664 233.153 135.256 222.744C124.847 212.336 119 198.22 119 183.5H135.65C135.65 193.804 139.743 203.685 147.029 210.971C154.315 218.257 164.196 222.35 174.5 222.35C184.804 222.35 194.685 218.257 201.971 210.971C209.257 203.685 213.35 193.804 213.35 183.5H230Z" fill="#FF92AE"/>
<path d="M229.684 177.587C230.703 187.092 229.249 196.699 225.464 205.477C221.678 214.254 215.69 221.906 208.079 227.689L198.005 214.433C203.333 210.384 207.525 205.028 210.174 198.884C212.824 192.739 213.842 186.014 213.129 179.361L229.684 177.587Z" fill="#4C6FFF"/>
<path d="M158.81 192.999H172.77V189.917H163.901V189.778L167.411 186.208C171.368 182.41 172.462 180.561 172.462 178.264C172.462 174.853 169.688 172.357 165.591 172.357C161.554 172.357 158.69 174.863 158.69 178.731H162.2C162.2 176.653 163.513 175.35 165.541 175.35C167.48 175.35 168.922 176.534 168.922 178.453C168.922 180.153 167.888 181.366 165.879 183.404L158.81 190.335V192.999Z" fill="#27272E"/>
<path d="M183.509 193.278C187.864 193.278 191.036 190.782 191.026 187.342C191.036 184.796 189.445 182.967 186.591 182.559V182.4C188.798 181.923 190.28 180.282 190.27 177.995C190.28 174.893 187.635 172.357 183.568 172.357C179.611 172.357 176.548 174.714 176.469 178.124H180.019C180.078 176.414 181.669 175.35 183.548 175.35C185.448 175.35 186.71 176.504 186.7 178.214C186.71 179.994 185.239 181.177 183.131 181.177H181.331V184.021H183.131C185.706 184.021 187.237 185.313 187.227 187.153C187.237 188.953 185.676 190.186 183.499 190.186C181.45 190.186 179.869 189.122 179.78 187.461H176.041C176.141 190.901 179.213 193.278 183.509 193.278Z" fill="#27272E"/>
<path d="M84.7383 56.6749H87.391C87.3526 54.3418 85.435 52.731 82.5202 52.731C79.6502 52.731 77.5472 54.3162 77.56 56.6941C77.5536 58.6245 78.9151 59.7303 81.1268 60.2608L82.5522 60.6188C83.9776 60.964 84.7702 61.373 84.7766 62.2551C84.7702 63.214 83.8626 63.8659 82.4563 63.8659C81.0181 63.8659 79.9826 63.2012 79.8931 61.8908H77.2148C77.2852 64.7225 79.3114 66.1863 82.4883 66.1863C85.6843 66.1863 87.5636 64.6586 87.57 62.2615C87.5636 60.0819 85.9208 58.9249 83.6452 58.4135L82.4691 58.1323C81.3313 57.8702 80.3789 57.4483 80.3981 56.5087C80.3981 55.665 81.146 55.0449 82.5011 55.0449C83.8242 55.0449 84.636 55.6458 84.7383 56.6749Z" fill="#27272E"/>
<path d="M94.5132 56.1826H92.6659V53.8303H89.9429V56.1826H88.6006V58.2281H89.9429V63.3417C89.9301 65.2657 91.2405 66.2181 93.2156 66.135C93.9187 66.1095 94.4173 65.9688 94.6922 65.8793L94.2639 63.8531C94.1297 63.8786 93.842 63.9425 93.5864 63.9425C93.043 63.9425 92.6659 63.738 92.6659 62.9837V58.2281H94.5132V56.1826Z" fill="#27272E"/>
<path d="M98.9962 66.1863C100.447 66.1863 101.387 65.5534 101.866 64.6394H101.943V66.0009H104.525V59.3787C104.525 57.0392 102.544 56.0549 100.358 56.0549C98.0054 56.0549 96.4586 57.1799 96.0814 58.9696L98.5999 59.1742C98.7853 58.5222 99.367 58.0428 100.345 58.0428C101.272 58.0428 101.802 58.5094 101.802 59.3148V59.3532C101.802 59.986 101.131 60.0691 99.4245 60.2353C97.4813 60.4142 95.7363 61.0662 95.7363 63.2587C95.7363 65.2019 97.1233 66.1863 98.9962 66.1863ZM99.776 64.307C98.9387 64.307 98.3378 63.9171 98.3378 63.1692C98.3378 62.4022 98.9706 62.025 99.9295 61.8908C100.524 61.8077 101.496 61.6671 101.822 61.4498V62.4917C101.822 63.5208 100.971 64.307 99.776 64.307Z" fill="#27272E"/>
<path d="M111.77 56.1826H109.923V53.8303H107.2V56.1826H105.857V58.2281H107.2V63.3417C107.187 65.2657 108.497 66.2181 110.472 66.135C111.176 66.1095 111.674 65.9688 111.949 65.8793L111.521 63.8531C111.387 63.8786 111.099 63.9425 110.843 63.9425C110.3 63.9425 109.923 63.738 109.923 62.9837V58.2281H111.77V56.1826Z" fill="#27272E"/>
<path d="M113.454 66.0009H116.177V56.1827H113.454V66.0009ZM114.822 54.9171C115.634 54.9171 116.298 54.2971 116.298 53.5364C116.298 52.7821 115.634 52.1621 114.822 52.1621C114.016 52.1621 113.352 52.7821 113.352 53.5364C113.352 54.2971 114.016 54.9171 114.822 54.9171Z" fill="#27272E"/>
<path d="M126.438 58.9824C126.195 57.1735 124.737 56.0549 122.257 56.0549C119.745 56.0549 118.09 57.2182 118.096 59.1103C118.09 60.5804 119.017 61.5328 120.934 61.9164L122.634 62.2551C123.491 62.4277 123.881 62.7409 123.894 63.2331C123.881 63.8148 123.248 64.2303 122.296 64.2303C121.324 64.2303 120.678 63.8148 120.512 63.0158L117.834 63.1564C118.09 65.0357 119.688 66.1926 122.289 66.1926C124.833 66.1926 126.655 64.8951 126.661 62.9583C126.655 61.5392 125.728 60.6891 123.823 60.2992L122.046 59.9412C121.132 59.7431 120.794 59.4299 120.8 58.9569C120.794 58.3688 121.458 57.9853 122.302 57.9853C123.248 57.9853 123.811 58.503 123.945 59.1358L126.438 58.9824Z" fill="#27272E"/>
<path d="M133.508 56.1826H131.661V53.8303H128.938V56.1826H127.596V58.2281H128.938V63.3417C128.925 65.2657 130.236 66.2181 132.211 66.135C132.914 66.1095 133.412 65.9688 133.687 65.8793L133.259 63.8531C133.125 63.8786 132.837 63.9425 132.582 63.9425C132.038 63.9425 131.661 63.738 131.661 62.9837V58.2281H133.508V56.1826Z" fill="#27272E"/>
<path d="M135.192 66.0009H137.915V56.1827H135.192V66.0009ZM136.56 54.9171C137.372 54.9171 138.037 54.2971 138.037 53.5364C138.037 52.7821 137.372 52.1621 136.56 52.1621C135.755 52.1621 135.09 52.7821 135.09 53.5364C135.09 54.2971 135.755 54.9171 136.56 54.9171Z" fill="#27272E"/>
<path d="M144.442 66.1926C147.057 66.1926 148.699 64.6586 148.827 62.4022H146.258C146.098 63.4505 145.407 64.0385 144.474 64.0385C143.202 64.0385 142.378 62.9711 142.378 61.0918C142.378 59.2381 143.209 58.177 144.474 58.177C145.471 58.177 146.111 58.8354 146.258 59.8134H148.827C148.712 57.5442 146.993 56.0549 144.429 56.0549C141.451 56.0549 139.61 58.1195 139.61 61.1301C139.61 64.1152 141.419 66.1926 144.442 66.1926Z" fill="#27272E"/>
<path d="M158.65 58.9824C158.407 57.1735 156.949 56.0549 154.469 56.0549C151.957 56.0549 150.302 57.2182 150.308 59.1103C150.302 60.5804 151.229 61.5328 153.146 61.9164L154.846 62.2551C155.703 62.4277 156.093 62.7409 156.106 63.2331C156.093 63.8148 155.46 64.2303 154.508 64.2303C153.536 64.2303 152.89 63.8148 152.724 63.0158L150.046 63.1564C150.302 65.0357 151.9 66.1926 154.501 66.1926C157.045 66.1926 158.867 64.8951 158.873 62.9583C158.867 61.5392 157.94 60.6891 156.035 60.2992L154.258 59.9412C153.344 59.7431 153.006 59.4299 153.012 58.9569C153.006 58.3688 153.67 57.9853 154.514 57.9853C155.46 57.9853 156.023 58.503 156.157 59.1358L158.65 58.9824Z" fill="#27272E"/>
<path d="M419.426 55.3218C419.264 54.1159 418.293 53.3701 416.639 53.3701C414.965 53.3701 413.861 54.1457 413.865 55.4071C413.861 56.3872 414.479 57.0221 415.757 57.2778L416.891 57.5037C417.462 57.6187 417.722 57.8275 417.73 58.1556C417.722 58.5434 417.3 58.8204 416.665 58.8204C416.017 58.8204 415.587 58.5434 415.476 58.0108L413.69 58.1045C413.861 59.3573 414.926 60.1287 416.661 60.1287C418.357 60.1287 419.571 59.2636 419.575 57.9724C419.571 57.0264 418.953 56.4596 417.683 56.1997L416.499 55.961C415.889 55.8289 415.663 55.6201 415.668 55.3048C415.663 54.9127 416.107 54.6571 416.669 54.6571C417.3 54.6571 417.675 55.0022 417.764 55.4241L419.426 55.3218Z" fill="#4C6FFF"/>
<path d="M422.534 56.2166C422.538 55.3729 423.054 54.8786 423.795 54.8786C424.532 54.8786 424.967 55.3516 424.963 56.157V60.0007H426.778V55.8331C426.782 54.299 425.879 53.37 424.515 53.37C423.522 53.37 422.858 53.8388 422.559 54.6101H422.483V51.2734H420.718V60.0007H422.534V56.2166Z" fill="#4C6FFF"/>
<path d="M431.164 60.1287C433.15 60.1287 434.386 58.7693 434.386 56.7537C434.386 54.7252 433.15 53.3701 431.164 53.3701C429.178 53.3701 427.943 54.7252 427.943 56.7537C427.943 58.7693 429.178 60.1287 431.164 60.1287ZM431.173 58.7224C430.256 58.7224 429.788 57.8829 429.788 56.7409C429.788 55.5988 430.256 54.7551 431.173 54.7551C432.072 54.7551 432.541 55.5988 432.541 56.7409C432.541 57.8829 432.072 58.7224 431.173 58.7224Z" fill="#4C6FFF"/>
<path d="M436.693 60.0007H438.611L439.736 55.8842H439.817L440.942 60.0007H442.864L444.641 53.4553H442.808L441.811 57.8274H441.756L440.682 53.4553H438.879L437.823 57.853H437.763L436.749 53.4553H434.912L436.693 60.0007Z" fill="#4C6FFF"/>
<path d="M448.386 60.0008H450.202V56.0718C450.202 55.3474 450.662 54.8659 451.267 54.8659C451.864 54.8659 452.264 55.275 452.264 55.9184V60.0008H454.024V56.0037C454.024 55.3261 454.412 54.8659 455.073 54.8659C455.652 54.8659 456.087 55.2281 456.087 55.9568V60.0008H457.898V55.5988C457.898 54.1798 457.054 53.3701 455.835 53.3701C454.877 53.3701 454.131 53.8602 453.862 54.6102H453.794C453.585 53.8517 452.916 53.3701 452.017 53.3701C451.135 53.3701 450.466 53.8389 450.193 54.6102H450.117V53.4554H448.386V60.0008Z" fill="#4C6FFF"/>
<path d="M462.289 60.1287C464.275 60.1287 465.511 58.7693 465.511 56.7537C465.511 54.7252 464.275 53.3701 462.289 53.3701C460.303 53.3701 459.068 54.7252 459.068 56.7537C459.068 58.7693 460.303 60.1287 462.289 60.1287ZM462.298 58.7224C461.381 58.7224 460.913 57.8829 460.913 56.7409C460.913 55.5988 461.381 54.7551 462.298 54.7551C463.197 54.7551 463.666 55.5988 463.666 56.7409C463.666 57.8829 463.197 58.7224 462.298 58.7224Z" fill="#4C6FFF"/>
<path d="M466.691 60.0008H468.506V56.2977C468.506 55.4923 469.095 54.9383 469.896 54.9383C470.147 54.9383 470.492 54.9809 470.663 55.0363V53.4255C470.501 53.3872 470.275 53.3616 470.092 53.3616C469.359 53.3616 468.758 53.7877 468.519 54.5974H468.451V53.4554H466.691V60.0008Z" fill="#4C6FFF"/>
<path d="M474.28 60.1287C475.899 60.1287 476.99 59.3403 477.245 58.1258L475.566 58.015C475.383 58.5136 474.915 58.7735 474.309 58.7735C473.402 58.7735 472.826 58.1727 472.826 57.1968V57.1926H477.284V56.694C477.284 54.4696 475.937 53.3701 474.207 53.3701C472.281 53.3701 471.032 54.738 471.032 56.7579C471.032 58.8332 472.264 60.1287 474.28 60.1287ZM472.826 56.0676C472.865 55.3218 473.432 54.7252 474.237 54.7252C475.025 54.7252 475.571 55.2877 475.575 56.0676H472.826Z" fill="#4C6FFF"/>
<path d="M87 289C87 285.686 89.6863 283 93 283H131C134.314 283 137 285.686 137 289V301C137 304.314 134.314 307 131 307H93C89.6863 307 87 304.314 87 301V289Z" fill="#E1E8FF"/>
<path d="M101.577 293.819H103.051C103.03 292.523 101.964 291.628 100.345 291.628C98.7505 291.628 97.5822 292.509 97.5893 293.83C97.5857 294.902 98.3421 295.516 99.5708 295.811L100.363 296.01C101.155 296.202 101.595 296.429 101.598 296.919C101.595 297.452 101.091 297.814 100.309 297.814C99.5105 297.814 98.9352 297.445 98.8855 296.717H97.3975C97.4366 298.29 98.5623 299.103 100.327 299.103C102.103 299.103 103.147 298.254 103.15 296.923C103.147 295.712 102.234 295.069 100.97 294.785L100.317 294.629C99.6845 294.483 99.1553 294.249 99.166 293.727C99.166 293.258 99.5815 292.913 100.334 292.913C101.069 292.913 101.52 293.247 101.577 293.819ZM107.654 296.678C107.658 297.409 107.157 297.793 106.614 297.793C106.042 297.793 105.673 297.391 105.669 296.749V293.545H104.156V297.018C104.16 298.293 104.905 299.071 106.003 299.071C106.823 299.071 107.413 298.648 107.658 298.009H107.714V299H109.167V293.545H107.654V296.678ZM110.377 301.045H111.89V298.126H111.936C112.145 298.581 112.603 299.089 113.484 299.089C114.727 299.089 115.696 298.105 115.696 296.28C115.696 294.405 114.684 293.474 113.488 293.474C112.575 293.474 112.138 294.018 111.936 294.462H111.868V293.545H110.377V301.045ZM111.858 296.273C111.858 295.3 112.27 294.678 113.005 294.678C113.754 294.678 114.152 295.328 114.152 296.273C114.152 297.224 113.747 297.885 113.005 297.885C112.277 297.885 111.858 297.246 111.858 296.273ZM119.191 299.107C120.54 299.107 121.449 298.45 121.662 297.438L120.263 297.345C120.111 297.761 119.72 297.977 119.216 297.977C118.459 297.977 117.98 297.477 117.98 296.663V296.66H121.694V296.244C121.694 294.391 120.572 293.474 119.13 293.474C117.525 293.474 116.485 294.614 116.485 296.298C116.485 298.027 117.511 299.107 119.191 299.107ZM117.98 295.722C118.012 295.101 118.484 294.604 119.155 294.604C119.812 294.604 120.267 295.072 120.27 295.722H117.98ZM122.682 299H124.194V295.914C124.194 295.243 124.684 294.781 125.352 294.781C125.562 294.781 125.849 294.817 125.991 294.863V293.521C125.856 293.489 125.668 293.467 125.515 293.467C124.905 293.467 124.404 293.822 124.205 294.497H124.148V293.545H122.682V299Z" fill="#4C6FFF"/>
<path d="M201 289C201 285.686 203.686 283 207 283H256C259.314 283 262 285.686 262 289V301C262 304.314 259.314 307 256 307H207C203.686 307 201 304.314 201 301V289Z" fill="#FFEEF1"/>
<path d="M211.632 299H213.17V296.642H214.462C216.135 296.642 217.108 295.644 217.108 294.192C217.108 292.746 216.153 291.727 214.501 291.727H211.632V299ZM213.17 295.41V292.984H214.207C215.094 292.984 215.524 293.467 215.524 294.192C215.524 294.913 215.094 295.41 214.214 295.41H213.17ZM221.576 296.678C221.58 297.409 221.079 297.793 220.536 297.793C219.964 297.793 219.595 297.391 219.591 296.749V293.545H218.078V297.018C218.082 298.293 218.828 299.071 219.925 299.071C220.745 299.071 221.335 298.648 221.58 298.009H221.637V299H223.089V293.545H221.576V296.678ZM224.299 299H225.812V295.914C225.812 295.243 226.302 294.781 226.969 294.781C227.179 294.781 227.467 294.817 227.609 294.863V293.521C227.474 293.489 227.286 293.467 227.133 293.467C226.522 293.467 226.021 293.822 225.822 294.497H225.766V293.545H224.299V299ZM228.391 301.045H229.904V298.126H229.95C230.159 298.581 230.617 299.089 231.498 299.089C232.741 299.089 233.71 298.105 233.71 296.28C233.71 294.405 232.698 293.474 231.502 293.474C230.589 293.474 230.152 294.018 229.95 294.462H229.882V293.545H228.391V301.045ZM229.872 296.273C229.872 295.3 230.284 294.678 231.019 294.678C231.768 294.678 232.166 295.328 232.166 296.273C232.166 297.224 231.761 297.885 231.019 297.885C230.291 297.885 229.872 297.246 229.872 296.273ZM237.183 299.107C238.838 299.107 239.868 297.974 239.868 296.294C239.868 294.604 238.838 293.474 237.183 293.474C235.529 293.474 234.499 294.604 234.499 296.294C234.499 297.974 235.529 299.107 237.183 299.107ZM237.191 297.935C236.427 297.935 236.036 297.235 236.036 296.283C236.036 295.332 236.427 294.629 237.191 294.629C237.94 294.629 238.33 295.332 238.33 296.283C238.33 297.235 237.94 297.935 237.191 297.935ZM245.39 295.101C245.255 294.096 244.445 293.474 243.068 293.474C241.672 293.474 240.752 294.121 240.756 295.172C240.752 295.989 241.267 296.518 242.333 296.731L243.277 296.919C243.753 297.015 243.97 297.189 243.977 297.462C243.97 297.786 243.618 298.016 243.089 298.016C242.549 298.016 242.191 297.786 242.098 297.342L240.61 297.42C240.752 298.464 241.64 299.107 243.085 299.107C244.499 299.107 245.511 298.386 245.514 297.31C245.511 296.521 244.996 296.049 243.938 295.832L242.95 295.634C242.443 295.523 242.254 295.349 242.258 295.087C242.254 294.76 242.624 294.547 243.093 294.547C243.618 294.547 243.931 294.835 244.005 295.186L245.39 295.101ZM248.953 299.107C250.302 299.107 251.211 298.45 251.424 297.438L250.025 297.345C249.873 297.761 249.482 297.977 248.978 297.977C248.221 297.977 247.742 297.477 247.742 296.663V296.66H251.456V296.244C251.456 294.391 250.334 293.474 248.892 293.474C247.287 293.474 246.247 294.614 246.247 296.298C246.247 298.027 247.273 299.107 248.953 299.107ZM247.742 295.722C247.774 295.101 248.246 294.604 248.917 294.604C249.574 294.604 250.029 295.072 250.032 295.722H247.742Z" fill="#FF92AE"/>
<path d="M145 289C145 285.686 147.686 283 151 283H187C190.314 283 193 285.686 193 289V301C193 304.314 190.314 307 187 307H151C147.686 307 145 304.314 145 301V289Z" fill="#DEFFEE"/>
<path d="M160.455 294.078H162.017C161.818 292.64 160.55 291.628 158.906 291.628C156.985 291.628 155.504 293.013 155.504 295.371C155.504 297.672 156.889 299.099 158.938 299.099C160.774 299.099 162.085 297.938 162.085 296.024V295.108H159.041V296.266H160.604C160.582 297.168 159.968 297.739 158.945 297.739C157.791 297.739 157.063 296.876 157.063 295.357C157.063 293.844 157.82 292.988 158.931 292.988C159.723 292.988 160.259 293.396 160.455 294.078ZM163.211 299H164.724V295.914C164.724 295.243 165.214 294.781 165.882 294.781C166.091 294.781 166.379 294.817 166.521 294.863V293.521C166.386 293.489 166.198 293.467 166.045 293.467C165.434 293.467 164.933 293.822 164.735 294.497H164.678V293.545H163.211V299ZM169.535 299.107C170.884 299.107 171.793 298.45 172.006 297.438L170.607 297.345C170.455 297.761 170.064 297.977 169.56 297.977C168.803 297.977 168.324 297.477 168.324 296.663V296.66H172.038V296.244C172.038 294.391 170.916 293.474 169.474 293.474C167.869 293.474 166.829 294.614 166.829 296.298C166.829 298.027 167.855 299.107 169.535 299.107ZM168.324 295.722C168.356 295.101 168.828 294.604 169.499 294.604C170.156 294.604 170.611 295.072 170.614 295.722H168.324ZM174.581 299.103C175.387 299.103 175.909 298.751 176.175 298.244H176.218V299H177.653V295.321C177.653 294.021 176.552 293.474 175.337 293.474C174.031 293.474 173.171 294.099 172.962 295.094L174.361 295.207C174.464 294.845 174.787 294.579 175.33 294.579C175.845 294.579 176.14 294.838 176.14 295.286V295.307C176.14 295.658 175.767 295.705 174.819 295.797C173.739 295.896 172.77 296.259 172.77 297.477C172.77 298.556 173.54 299.103 174.581 299.103ZM175.014 298.059C174.549 298.059 174.215 297.842 174.215 297.427C174.215 297.001 174.567 296.791 175.099 296.717C175.43 296.67 175.969 296.592 176.151 296.472V297.05C176.151 297.622 175.678 298.059 175.014 298.059ZM181.728 293.545H180.701V292.239H179.189V293.545H178.443V294.682H179.189V297.523C179.181 298.592 179.909 299.121 181.007 299.075C181.397 299.06 181.674 298.982 181.827 298.933L181.589 297.807C181.515 297.821 181.355 297.857 181.213 297.857C180.911 297.857 180.701 297.743 180.701 297.324V294.682H181.728V293.545Z" fill="#66CB9F"/>
</g>
<defs>
<filter id="filter0_dd_346_19286" x="0" y="11" width="556" height="398" filterUnits="userSpaceOnUse" color-interpolation-filters="sRGB">
<feFlood flood-opacity="0" result="BackgroundImageFix"/>
<feColorMatrix in="SourceAlpha" type="matrix" values="0 0 0 0 0 0 0 0 0 0 0 0 0 0 0 0 0 0 127 0" result="hardAlpha"/>
<feOffset dy="30"/>
<feGaussianBlur stdDeviation="20"/>
<feColorMatrix type="matrix" values="0 0 0 0 0.0784314 0 0 0 0 0.145098 0 0 0 0 0.247059 0 0 0 0.08 0"/>
<feBlend mode="normal" in2="BackgroundImageFix" result="effect1_dropShadow_346_19286"/>
<feColorMatrix in="SourceAlpha" type="matrix" values="0 0 0 0 0 0 0 0 0 0 0 0 0 0 0 0 0 0 127 0" result="hardAlpha"/>
<feOffset/>
<feGaussianBlur stdDeviation="0.5"/>
<feColorMatrix type="matrix" values="0 0 0 0 0.0470588 0 0 0 0 0.101961 0 0 0 0 0.294118 0 0 0 0.1 0"/>
<feBlend mode="normal" in2="effect1_dropShadow_346_19286" result="effect2_dropShadow_346_19286"/>
<feBlend mode="normal" in="SourceGraphic" in2="effect2_dropShadow_346_19286" result="shape"/>
</filter>
<filter id="filter1_dd_346_19286" x="278" y="82" width="237" height="132" filterUnits="userSpaceOnUse" color-interpolation-filters="sRGB">
<feFlood flood-opacity="0" result="BackgroundImageFix"/>
<feColorMatrix in="SourceAlpha" type="matrix" values="0 0 0 0 0 0 0 0 0 0 0 0 0 0 0 0 0 0 127 0" result="hardAlpha"/>
<feOffset dy="3"/>
<feGaussianBlur stdDeviation="4"/>
<feColorMatrix type="matrix" values="0 0 0 0 0.196078 0 0 0 0 0.196078 0 0 0 0 0.278431 0 0 0 0.05 0"/>
<feBlend mode="normal" in2="BackgroundImageFix" result="effect1_dropShadow_346_19286"/>
<feColorMatrix in="SourceAlpha" type="matrix" values="0 0 0 0 0 0 0 0 0 0 0 0 0 0 0 0 0 0 127 0" result="hardAlpha"/>
<feOffset/>
<feGaussianBlur stdDeviation="0.5"/>
<feColorMatrix type="matrix" values="0 0 0 0 0.0470588 0 0 0 0 0.101961 0 0 0 0 0.294118 0 0 0 0.24 0"/>
<feBlend mode="normal" in2="effect1_dropShadow_346_19286" result="effect2_dropShadow_346_19286"/>
<feBlend mode="normal" in="SourceGraphic" in2="effect2_dropShadow_346_19286" result="shape"/>
</filter>
<filter id="filter2_dd_346_19286" x="278" y="205" width="237" height="132" filterUnits="userSpaceOnUse" color-interpolation-filters="sRGB">
<feFlood flood-opacity="0" result="BackgroundImageFix"/>
<feColorMatrix in="SourceAlpha" type="matrix" values="0 0 0 0 0 0 0 0 0 0 0 0 0 0 0 0 0 0 127 0" result="hardAlpha"/>
<feOffset dy="3"/>
<feGaussianBlur stdDeviation="4"/>
<feColorMatrix type="matrix" values="0 0 0 0 0.196078 0 0 0 0 0.196078 0 0 0 0 0.278431 0 0 0 0.05 0"/>
<feBlend mode="normal" in2="BackgroundImageFix" result="effect1_dropShadow_346_19286"/>
<feColorMatrix in="SourceAlpha" type="matrix" values="0 0 0 0 0 0 0 0 0 0 0 0 0 0 0 0 0 0 127 0" result="hardAlpha"/>
<feOffset/>
<feGaussianBlur stdDeviation="0.5"/>
<feColorMatrix type="matrix" values="0 0 0 0 0.0470588 0 0 0 0 0.101961 0 0 0 0 0.294118 0 0 0 0.24 0"/>
<feBlend mode="normal" in2="effect1_dropShadow_346_19286" result="effect2_dropShadow_346_19286"/>
<feBlend mode="normal" in="SourceGraphic" in2="effect2_dropShadow_346_19286" result="shape"/>
</filter>
<filter id="filter3_d_346_19286" x="79" y="108" width="191" height="191" filterUnits="userSpaceOnUse" color-interpolation-filters="sRGB">
<feFlood flood-opacity="0" result="BackgroundImageFix"/>
<feColorMatrix in="SourceAlpha" type="matrix" values="0 0 0 0 0 0 0 0 0 0 0 0 0 0 0 0 0 0 127 0" result="hardAlpha"/>
<feOffset dy="20"/>
<feGaussianBlur stdDeviation="20"/>
<feColorMatrix type="matrix" values="0 0 0 0 0.658039 0 0 0 0 0.572549 0 0 0 0 1 0 0 0 0.16 0"/>
<feBlend mode="normal" in2="BackgroundImageFix" result="effect1_dropShadow_346_19286"/>
<feBlend mode="normal" in="SourceGraphic" in2="effect1_dropShadow_346_19286" result="shape"/>
</filter>
<linearGradient id="paint0_linear_346_19286" x1="491" y1="103" x2="445" y2="149" gradientUnits="userSpaceOnUse">
<stop stop-color="#BB65FF"/>
<stop offset="1" stop-color="#4C6FFF"/>
</linearGradient>
</defs>
</svg>
