<svg width="16" height="8" viewBox="0 0 16 8" fill="none" xmlns="http://www.w3.org/2000/svg">
<path fill-rule="evenodd" clip-rule="evenodd" d="M4.06201 1.125C2.50901 1.125 1.25 2.384 1.25 3.938C1.25 5.491 2.50901 6.75 4.06201 6.75C5.61601 6.75 6.875 5.491 6.875 3.938C6.875 2.384 5.61601 1.125 4.06201 1.125ZM6.81799 1.125C7.54699 1.84 8 2.836 8 3.938C8 5.039 7.54699 6.035 6.81799 6.75H11.938C13.491 6.75 14.75 5.491 14.75 3.938C14.75 2.384 13.491 1.125 11.938 1.125H6.81799ZM4.06201 0H11.938C14.112 0 15.875 1.763 15.875 3.938C15.875 6.112 14.112 7.875 11.938 7.875H4.06201C1.88801 7.875 0.125 6.112 0.125 3.938C0.125 1.763 1.88801 0 4.06201 0Z" fill="white"/>
</svg>
