<svg width="26" height="26" viewBox="0 0 26 26" fill="none" xmlns="http://www.w3.org/2000/svg">
<path d="M11.6455 14.8959C12.0047 14.8959 12.3491 14.7532 12.603 14.4993C12.857 14.2453 12.9997 13.9009 12.9997 13.5417C12.9997 13.1826 12.857 12.8382 12.603 12.5842C12.3491 12.3303 12.0047 12.1876 11.6455 12.1876C11.2864 12.1876 10.9419 12.3303 10.688 12.5842C10.434 12.8382 10.2913 13.1826 10.2913 13.5417C10.2913 13.9009 10.434 14.2453 10.688 14.4993C10.9419 14.7532 11.2864 14.8959 11.6455 14.8959ZM7.85384 5.95841C7.85384 4.9528 8.25332 3.98838 8.96439 3.2773C9.67547 2.56623 10.6399 2.16675 11.6455 2.16675C12.6511 2.16675 13.6155 2.56623 14.3266 3.2773C15.0377 3.98838 15.4372 4.9528 15.4372 5.95841V7.04175H16.5205C17.167 7.04175 17.787 7.29856 18.2441 7.75568C18.7012 8.2128 18.958 8.83278 18.958 9.47925V17.6042C18.958 18.2507 18.7012 18.8707 18.2441 19.3278C17.787 19.7849 17.167 20.0417 16.5205 20.0417H6.77051C6.12404 20.0417 5.50406 19.7849 5.04694 19.3278C4.58982 18.8707 4.33301 18.2507 4.33301 17.6042V9.47925C4.33301 8.83278 4.58982 8.2128 5.04694 7.75568C5.50406 7.29856 6.12404 7.04175 6.77051 7.04175H7.85384V5.95841ZM13.8122 5.95841C13.8122 5.38378 13.5839 4.83268 13.1776 4.42635C12.7712 4.02002 12.2201 3.79175 11.6455 3.79175C11.0709 3.79175 10.5198 4.02002 10.1134 4.42635C9.70711 4.83268 9.47884 5.38378 9.47884 5.95841V7.04175H13.8122V5.95841ZM5.95801 9.47925V17.6042C5.95801 18.0527 6.32201 18.4167 6.77051 18.4167H16.5205C16.736 18.4167 16.9427 18.3311 17.095 18.1788C17.2474 18.0264 17.333 17.8197 17.333 17.6042V9.47925C17.333 9.26376 17.2474 9.0571 17.095 8.90472C16.9427 8.75235 16.736 8.66675 16.5205 8.66675H6.77051C6.55502 8.66675 6.34836 8.75235 6.19598 8.90472C6.04361 9.0571 5.95801 9.26376 5.95801 9.47925ZM10.5622 22.7501C10.058 22.7502 9.56616 22.594 9.15445 22.303C8.74274 22.012 8.4314 21.6004 8.26334 21.1251H17.0622C17.8523 21.1251 18.6101 20.8112 19.1688 20.2525C19.7275 19.6938 20.0413 18.936 20.0413 18.1459V10.9721C20.5167 11.1401 20.9282 11.4515 21.2193 11.8632C21.5103 12.2749 21.6665 12.7667 21.6663 13.2709V18.1459C21.6663 18.7505 21.5473 19.3492 21.3159 19.9079C21.0845 20.4665 20.7453 20.974 20.3178 21.4016C19.8903 21.8291 19.3827 22.1682 18.8241 22.3996C18.2655 22.631 17.6668 22.7501 17.0622 22.7501H10.5622Z" fill="#53B9EA"/>
</svg>
