<svg width="17" height="20" viewBox="0 0 17 20" fill="none" xmlns="http://www.w3.org/2000/svg">
<path d="M8.5 0.913086C7.56603 0.913086 6.65304 1.20398 5.87647 1.74899C5.09991 2.294 4.49465 3.06863 4.13724 3.97495C3.77982 4.88126 3.68631 5.87854 3.86851 6.84068C4.05072 7.80282 4.50047 8.6866 5.16088 9.38026C5.8213 10.0739 6.66272 10.5463 7.57874 10.7377C8.49476 10.9291 9.44424 10.8308 10.3071 10.4554C11.17 10.08 11.9075 9.4443 12.4264 8.62864C12.9453 7.81298 13.2222 6.85403 13.2222 5.87304C13.2222 4.55758 12.7247 3.29599 11.8391 2.36582C10.9535 1.43565 9.75241 0.913086 8.5 0.913086ZM8.5 8.84901C7.93962 8.84901 7.39182 8.67448 6.92588 8.34747C6.45994 8.02047 6.09679 7.55568 5.88234 7.0119C5.66789 6.46811 5.61178 5.86974 5.72111 5.29246C5.83043 4.71517 6.10028 4.18491 6.49653 3.76871C6.89278 3.35251 7.39763 3.06908 7.94724 2.95425C8.49686 2.83942 9.06655 2.89836 9.58427 3.1236C10.102 3.34884 10.5445 3.73028 10.8558 4.21968C11.1672 4.70907 11.3333 5.28445 11.3333 5.87304C11.3333 6.66232 11.0348 7.41927 10.5035 7.97737C9.97212 8.53547 9.25145 8.84901 8.5 8.84901ZM17 19.7609V18.7689C17 16.9273 16.3035 15.1611 15.0636 13.8588C13.8238 12.5566 12.1423 11.825 10.3889 11.825H6.61111C4.85774 11.825 3.17617 12.5566 1.93635 13.8588C0.696526 15.1611 0 16.9273 0 18.7689V19.7609H1.88889V18.7689C1.88889 17.4535 2.38641 16.1919 3.272 15.2617C4.15758 14.3315 5.3587 13.809 6.61111 13.809H10.3889C11.6413 13.809 12.8424 14.3315 13.728 15.2617C14.6136 16.1919 15.1111 17.4535 15.1111 18.7689V19.7609H17Z" fill="#53B9EA"/>
</svg>
